####
#
# OBJ File Generated by Meshlab
#
####
# Object animal.obj
#
# Vertices: 8
# Faces: 12
#
####
mtllib ./animal.obj.mtl

vn 1.570796 1.570796 -1.570796
v 6.750000 2.450000 -5.850000
vn 1.570796 -1.570796 -1.570796
v 6.750000 -2.450000 -5.850000
vn -1.570796 -1.570796 -1.570796
v -6.750000 -2.450000 -5.850000
vn -1.570796 1.570796 -1.570796
v -6.750000 2.450000 -5.850000
vn 1.570796 1.570796 1.570796
v 6.750000 2.450000 5.850000
vn 1.570796 -1.570796 1.570796
v 6.750000 -2.450000 5.850000
vn -1.570796 -1.570796 1.570796
v -6.750000 -2.450000 5.850000
vn -1.570796 1.570796 1.570796
v -6.750000 2.450000 5.850000
# 8 vertices, 0 vertices normals


usemtl material_0
vt 0.554208 0.647566
vt 0.147649 0.500000
vt 0.554208 0.500000
f 2/1/2 4/2/4 1/3/1
vt 0.147649 0.147649
vt 0.554208 0.000084
vt 0.554208 0.147649
f 8/4/8 6/5/6 5/6/5
vt 0.701773 0.500000
f 5/6/5 2/7/2 1/3/1
vt 0.554208 0.999916
vt 0.147649 0.647565
f 6/8/6 3/9/3 2/1/2
vt 0.000084 0.147649
vt 0.000084 0.500000
f 7/10/7 4/2/4 3/11/3
f 1/3/1 8/4/8 5/6/5
f 2/1/2 3/9/3 4/2/4
vt 0.147649 0.000084
f 8/4/8 7/12/7 6/5/6
vt 0.701774 0.147649
f 5/6/5 6/13/6 2/7/2
vt 0.147649 0.999916
f 6/8/6 7/14/7 3/9/3
f 7/10/7 8/4/8 4/2/4
f 1/3/1 4/2/4 8/4/8
# 12 faces, 14 coords texture

# End of File