# Blender v2.82 (sub 7) OBJ File: 'dvd.blend'
# www.blender.org
mtllib dvd.mtl
o Cube
v 0.026000 0.062000 -0.071000
v 0.026000 -0.062000 -0.071000
v 0.026000 0.062000 0.071000
v 0.026000 -0.062000 0.071000
v -0.026000 0.062000 -0.071000
v -0.026000 -0.062000 -0.071000
v -0.026000 0.062000 0.071000
v -0.026000 -0.062000 0.071000
vt 0.147786 0.551128
vt 0.000084 0.551128
vt 0.000084 0.147786
vt 0.147786 0.147786
vt 0.500000 0.147786
vt 0.147786 0.000084
vt 0.500000 0.000084
vt 0.647703 0.147786
vt 0.999916 0.147786
vt 0.999916 0.551128
vt 0.647703 0.551128
vt 0.500000 0.551128
vt 0.500000 0.698830
vt 0.147786 0.698830
vn 0.0000 1.0000 0.0000
vn 0.0000 0.0000 1.0000
vn -1.0000 0.0000 0.0000
vn 0.0000 -1.0000 0.0000
vn 1.0000 0.0000 0.0000
vn 0.0000 0.0000 -1.0000
usemtl Material
s off
f 1/1/1 5/2/1 7/3/1 3/4/1
f 4/5/2 3/4/2 7/6/2 8/7/2
f 8/8/3 7/9/3 5/10/3 6/11/3
f 6/11/4 2/12/4 4/5/4 8/8/4
f 2/12/5 1/1/5 3/4/5 4/5/5
f 6/13/6 5/14/6 1/1/6 2/12/6
