# Blender v2.82 (sub 7) OBJ File: 'kimwipe.blend'
# www.blender.org
mtllib kimwipe.mtl
o Cube
v 0.060000 0.045000 -0.065000
v 0.060000 -0.045000 -0.065000
v 0.060000 0.045000 0.065000
v 0.060000 -0.045000 0.065000
v -0.060000 0.045000 -0.065000
v -0.060000 -0.045000 -0.065000
v -0.060000 0.045000 0.065000
v -0.060000 -0.045000 0.065000
vt 0.500000 0.523805
vt 0.214335 0.523805
vt 0.214335 0.214335
vt 0.500000 0.214335
vt 0.500000 0.000086
vt 0.214335 0.000086
vt 0.000086 0.214335
vt 0.000086 0.523805
vt 0.999914 0.523806
vt 0.714249 0.523805
vt 0.714249 0.214335
vt 0.999914 0.214335
vt 0.214335 0.738054
vt 0.500000 0.738054
vn 0.0000 1.0000 0.0000
vn 0.0000 0.0000 1.0000
vn -1.0000 0.0000 0.0000
vn 0.0000 -1.0000 0.0000
vn 1.0000 0.0000 0.0000
vn 0.0000 0.0000 -1.0000
usemtl Material
s off
f 1/1/1 5/2/1 7/3/1 3/4/1
f 4/5/2 3/4/2 7/3/2 8/6/2
f 8/7/3 7/3/3 5/2/3 6/8/3
f 6/9/4 2/10/4 4/11/4 8/12/4
f 2/10/5 1/1/5 3/4/5 4/11/5
f 6/13/6 5/2/6 1/1/6 2/14/6
