# Blender v2.82 (sub 7) OBJ File: 'tepra.blend'
# www.blender.org
mtllib tepra.mtl
o Cube
v 0.012500 0.039000 -0.034000
v 0.012500 -0.039000 -0.034000
v 0.012500 0.039000 0.034000
v 0.012500 -0.039000 0.034000
v -0.012500 0.039000 -0.034000
v -0.012500 -0.039000 -0.034000
v -0.012500 0.039000 0.034000
v -0.012500 -0.039000 0.034000
vt 0.121417 0.121417
vt 0.121417 0.000076
vt 0.451464 0.000076
vt 0.451464 0.121417
vt 0.451464 0.500000
vt 0.572805 0.121417
vt 0.572805 0.500000
vt 0.451464 0.621341
vt 0.451464 0.999924
vt 0.121417 0.999924
vt 0.121417 0.621341
vt 0.121417 0.500000
vt 0.000076 0.500000
vt 0.000076 0.121417
vn 0.0000 1.0000 0.0000
vn 0.0000 0.0000 1.0000
vn -1.0000 0.0000 0.0000
vn 0.0000 -1.0000 0.0000
vn 1.0000 0.0000 0.0000
vn 0.0000 0.0000 -1.0000
usemtl Material
s off
f 1/1/1 5/2/1 7/3/1 3/4/1
f 4/5/2 3/4/2 7/6/2 8/7/2
f 8/8/3 7/9/3 5/10/3 6/11/3
f 6/11/4 2/12/4 4/5/4 8/8/4
f 2/12/5 1/1/5 3/4/5 4/5/5
f 6/13/6 5/14/6 1/1/6 2/12/6
